<?xml version="1.0" encoding="UTF-8" standalone="no"?>
<svg
   viewBox="0 0 24 24"
   version="1.1"
   id="svg4"
   sodipodi:docname="controller3.svg"
   inkscape:version="1.1.2 (b8e25be833, 2022-02-05)"
   xmlns:inkscape="http://www.inkscape.org/namespaces/inkscape"
   xmlns:sodipodi="http://sodipodi.sourceforge.net/DTD/sodipodi-0.dtd"
   xmlns="http://www.w3.org/2000/svg"
   xmlns:svg="http://www.w3.org/2000/svg">
  <defs
     id="defs8" />
  <sodipodi:namedview
     id="namedview6"
     pagecolor="#505050"
     bordercolor="#eeeeee"
     borderopacity="1"
     inkscape:pageshadow="0"
     inkscape:pageopacity="0"
     inkscape:pagecheckerboard="0"
     showgrid="false"
     inkscape:zoom="29.625"
     inkscape:cx="12"
     inkscape:cy="11.983122"
     inkscape:window-width="1366"
     inkscape:window-height="697"
     inkscape:window-x="1912"
     inkscape:window-y="304"
     inkscape:window-maximized="1"
     inkscape:current-layer="svg4" />
  <path
     d="M7,6H17C20.31,6 23,8.69 23,12C23,15.31 20.31,18 17,18C15.22,18 13.63,17.23 12.53,16H11.47C10.37,17.23 8.78,18 7,18C3.69,18 1,15.31 1,12C1,8.69 3.69,6 7,6M6,9V11H4V13H6V15H8V13H10V11H8V9H6M15.5,12C14.67,12 14,12.67 14,13.5C14,14.33 14.67,15 15.5,15C16.33,15 17,14.33 17,13.5C17,12.67 16.33,12 15.5,12M18.5,9C17.67,9 17,9.67 17,10.5C17,11.33 17.67,12 18.5,12C19.33,12 20,11.33 20,10.5C20,9.67 19.33,9 18.5,9Z"
     id="path2"
     style="fill:#000000;fill-opacity:0.5" />
</svg>
