<?xml version="1.0" encoding="UTF-8" standalone="no"?>
<svg
   viewBox="0 0 24 24"
   version="1.1"
   id="svg4"
   sodipodi:docname="controller2.svg"
   inkscape:version="1.1.2 (b8e25be833, 2022-02-05)"
   xmlns:inkscape="http://www.inkscape.org/namespaces/inkscape"
   xmlns:sodipodi="http://sodipodi.sourceforge.net/DTD/sodipodi-0.dtd"
   xmlns="http://www.w3.org/2000/svg"
   xmlns:svg="http://www.w3.org/2000/svg">
  <defs
     id="defs8" />
  <sodipodi:namedview
     id="namedview6"
     pagecolor="#505050"
     bordercolor="#eeeeee"
     borderopacity="1"
     inkscape:pageshadow="0"
     inkscape:pageopacity="0"
     inkscape:pagecheckerboard="0"
     showgrid="false"
     inkscape:zoom="29.625"
     inkscape:cx="12"
     inkscape:cy="11.983122"
     inkscape:window-width="1366"
     inkscape:window-height="697"
     inkscape:window-x="1912"
     inkscape:window-y="304"
     inkscape:window-maximized="1"
     inkscape:current-layer="svg4" />
  <path
     d="M21,6H3C1.9,6 1,6.9 1,8V16C1,17.1 1.9,18 3,18H21C22.1,18 23,17.1 23,16V8C23,6.9 22.1,6 21,6M11,13H8V16H6V13H3V11H6V8H8V11H11M15.5,15C14.67,15 14,14.33 14,13.5C14,12.67 14.67,12 15.5,12C16.33,12 17,12.67 17,13.5C17,14.33 16.33,15 15.5,15M19.5,12C18.67,12 18,11.33 18,10.5C18,9.67 18.67,9 19.5,9C20.33,9 21,9.67 21,10.5C21,11.33 20.33,12 19.5,12Z"
     id="path2"
     style="fill:#000000;fill-opacity:0.5" />
</svg>
